<?xml version="1.0" encoding="utf-8"?>
<!-- Svg Vector Icons : http://www.sfont.cn -->
<!DOCTYPE svg PUBLIC "-//W3C//DTD SVG 1.1//EN" "http://www.w3.org/Graphics/SVG/1.1/DTD/svg11.dtd">
<svg version="1.1" xmlns="http://www.w3.org/2000/svg" xmlns:xlink="http://www.w3.org/1999/xlink" x="0px" y="0px" viewBox="0 0 1000 1000" enable-background="new 0 0 1000 1000" xml:space="preserve">
<metadata> Svg Vector Icons : http://www.sfont.cn </metadata>
<g><g><path d="M670.9,875.3l-0.5,31.9c27.5-11.8,53.7-26.1,78.2-42.7c-2.7-40.1,13.8-84.5,48.3-119c28.9-28.9,65.9-46.1,102.4-48.2c7.4-13.7,14-27.9,20-42.4v-89l-248.4,66.6v226.4l0,0.7l0,1.1L670.9,875.3L670.9,875.3z"/><path d="M945.3,385.2C902.4,171.5,713.3,10,487.2,10C229.5,10,19.8,219.6,19.8,477.3c0,230,167,421.6,386.2,460.1c-7.2-43,9-93,46.9-130.8c30.9-30.9,70.9-48.6,109.8-48.6c4.2,0,8.4,0.2,12.5,0.6V633c-26,14.8-56,23.3-88.1,23.3c-98.7,0-179-80.3-179-179c0-98.7,80.3-179,179-179c92.9,0,169.5,71.2,178.1,161.9L945.3,385.2z M343,311.3L229.8,125.7c0,0,78.9-69.8,174-69.8l34.9,205.4C438.8,261.3,371.8,264.5,343,311.3z M473.5,266.4L442.4,47l34.5-4.9L508,261.5L473.5,266.4z"/><path d="M487.2,350.6c-69.9,0-126.8,56.9-126.8,126.8c0,69.9,56.9,126.8,126.8,126.8c34.2,0,65.2-13.7,88.1-35.8v-58V501v-25.5h3.3h30l5.2-1.4C612,405.7,556,350.6,487.2,350.6z M487.2,516.6c-21.7,0-39.3-17.6-39.3-39.3s17.6-39.3,39.3-39.3c21.7,0,39.3,17.6,39.3,39.3S508.8,516.6,487.2,516.6z"/><path d="M980,800.4h0.1V641V513.6v-3.3v-15.1v-35.7v-47.5l-3.9,1l-25.5,6.8l-285.7,76.6l-27.5,7.4l-24.5,6.6H610v0.8V568v39.1v5.6v195.6c-13.1-10.4-29.6-15.5-47.4-15.5c-28.5,0-60,13.1-85.2,38.4c-33.3,33.3-45.6,77.5-34.6,111.3c3.3,10.2,8.5,19.5,16.2,27.2c0.1,0.1,0.3,0.2,0.4,0.3c13.7,13.5,32.1,20.1,52.2,20.1c24.9,0,52.2-10.1,75.6-29.4c3.5-2.9,7-6,10.3-9.3c7.8-7.8,14-16.4,19.5-25.1c10.3-16.4,16.7-33.9,18.5-50.9h0.5v-14.8c0-0.3,0-0.6,0-0.9V605.8L952.4,521l1.8-0.5v116.1v68.2v42.5c-5.3-4.2-11.3-7.4-17.5-9.9c-8.3-3.3-17.3-5.2-26.8-5.5c-1.1,0-2.1-0.2-3.1-0.2c-10.1,0-20.6,1.8-31.1,5c-19,5.9-37.9,17.1-54.2,33.4c-19.9,19.9-32,43.8-36.5,67c-2.3,11.7-2.4,23.1-0.4,33.9c1.6,9.1,4.5,17.7,9.2,25.4c2.7,4.3,5.6,8.5,9.4,12.2c13.7,13.7,32.3,20.4,52.5,20.4c28.6,0,60.5-13.4,85.9-38.7C968.1,863.6,981.3,830,980,800.4z"/></g><g></g><g></g><g></g><g></g><g></g><g></g><g></g><g></g><g></g><g></g><g></g><g></g><g></g><g></g><g></g></g>
</svg>