<?xml version="1.0" encoding="utf-8"?>
<!-- Svg Vector Icons : http://www.sfont.cn -->
<!DOCTYPE svg PUBLIC "-//W3C//DTD SVG 1.1//EN" "http://www.w3.org/Graphics/SVG/1.1/DTD/svg11.dtd">
<svg version="1.1" xmlns="http://www.w3.org/2000/svg" xmlns:xlink="http://www.w3.org/1999/xlink" x="0px" y="0px" viewBox="0 0 1000 1000" enable-background="new 0 0 1000 1000" xml:space="preserve">
<metadata> Svg Vector Icons : http://www.sfont.cn </metadata>
<g><path d="M500,806.1c-18.3,0-36.7-9.5-55.6-28.5c-7.5-7.5-7.5-19.6,0-27.1c7.5-7.5,19.6-7.5,27.1,0c11.7,11.7,21,17.4,28.6,17.4c7.5,0,16.9-5.7,28.6-17.4c7.5-7.5,19.6-7.5,27.1,0c7.5,7.5,7.5,19.6,0,27.1C536.7,796.6,518.3,806.1,500,806.1z M10,512.9c0,47.7,4.1,91,12.2,129.8c8.2,38.8,19.6,72.5,34.5,101c14.8,28.5,33.5,53.5,56.2,75s47.2,39.2,73.8,53.1c26.5,13.9,56.9,25.2,91.1,33.7c34.2,8.6,69,14.6,104.4,18c35.4,3.4,74.4,5.2,116.9,5.2c42.5,0,81.6-1.7,117.1-5.1c35.6-3.4,70.4-9.4,104.6-18c34.2-8.6,64.6-19.8,91.4-33.7c26.7-13.9,51.5-31.6,74.3-53.1c22.8-21.5,41.6-46.5,56.4-75c14.8-28.5,26.4-62.2,34.7-101c8.3-38.8,12.5-82.1,12.5-129.8c0-85.5-26.5-159.2-79.6-221c3.1-8.2,5.7-17.7,7.9-28.3c2.2-10.7,4.3-25.7,6.4-45.1c2.1-19.4,1.3-41.8-2.3-67.2c-3.6-25.4-10.3-51.4-20.2-77.8l-7.7-1.5c-5.1-1-13.4-0.7-25,1c-11.6,1.7-25.1,4.8-40.6,9.3c-15.5,4.5-35.5,13.3-60,26.5c-24.5,13.2-50.4,30-77.6,50.2c-46.3-14.1-110.1-28.8-191.4-28.8c-81.3,0-145.3,14.7-191.9,28.8c-27.2-20.3-53.2-36.9-77.8-50c-24.7-13-44.4-22-59.2-26.8c-14.8-4.8-28.5-7.9-41.1-9.3c-12.6-1.4-20.7-1.8-24.2-1.3c-3.6,0.5-6.2,1.1-7.9,1.8c-9.9,26.5-16.7,52.4-20.4,77.8c-3.7,25.4-4.6,47.7-2.6,67c2,19.2,4.3,34.4,6.6,45.3c2.4,11,5.1,20.4,8.2,28.3C36.5,353.4,10,427.1,10,512.9L10,512.9z M140.7,621.9c0-55.5,20.4-105.9,61.2-151.1c12.2-13.8,26.5-24.2,42.6-31.3c16.2-7.1,34.5-11.1,55.1-12.1c20.6-1,40.2-0.8,59,0.6c18.7,1.3,41.8,3.2,69.4,5.5c27.6,2.3,51.4,3.4,71.5,3.4c20.1,0,43.9-1.1,71.4-3.4c27.5-2.3,50.7-4.1,69.4-5.5c18.7-1.3,38.4-1.5,59-0.6c20.6,0.9,39,5,55.4,12.1c16.3,7.1,30.6,17.5,42.9,31.3c40.8,45.2,61.2,95.5,61.2,151.1c0,32.6-3.4,61.6-10.2,87c-6.8,25.5-15.4,46.8-25.8,64.1c-10.4,17.2-24.9,31.8-43.6,43.7c-18.7,11.9-36.8,21.1-54.4,27.6c-17.5,6.5-40.1,11.6-67.9,15.2c-27.7,3.6-52.6,5.8-74.5,6.6c-21.9,0.8-49.6,1.1-82.9,1.1c-33.3,0-60.9-0.4-82.7-1.1c-21.8-0.8-46.5-3-74.3-6.6c-27.7-3.6-50.4-8.7-67.9-15.2c-17.5-6.5-35.6-15.7-54.4-27.6c-18.7-11.9-33.3-26.4-43.6-43.7c-10.4-17.2-19-38.6-25.8-64.1C144.1,683.5,140.7,654.5,140.7,621.9L140.7,621.9z M255,591.9c0-50.7,27.4-91.9,61.2-91.9c33.8,0,61.2,41.1,61.2,91.9s-27.4,91.9-61.2,91.9C282.4,683.7,255,642.6,255,591.9z M622.5,591.9c0-50.7,27.4-91.9,61.3-91.9c33.8,0,61.2,41.1,61.2,91.9s-27.4,91.9-61.2,91.9C649.9,683.7,622.5,642.6,622.5,591.9z"/></g>
</svg>