<?xml version="1.0" encoding="utf-8"?>
<!-- Svg Vector Icons : http://www.sfont.cn -->
<!DOCTYPE svg PUBLIC "-//W3C//DTD SVG 1.1//EN" "http://www.w3.org/Graphics/SVG/1.1/DTD/svg11.dtd">
<svg version="1.1" xmlns="http://www.w3.org/2000/svg" xmlns:xlink="http://www.w3.org/1999/xlink" x="0px" y="0px" viewBox="0 0 1000 1000" enable-background="new 0 0 1000 1000" xml:space="preserve">
<metadata> Svg Vector Icons : http://www.sfont.cn </metadata>
<g><path d="M962.2,29.5v-1.7c-0.2-0.4-0.5-0.7-0.7-1.1c-2.5-9.5-10.7-16.6-21-16.6c-1.2,0-2.3,0.4-3.5,0.6L937,10L312.9,153.7c-10,0.3-18.1,8.5-18.1,18.6c0,0.5,0.3,1,0.3,1.5c-0.4,1.2-0.8,2.3-0.8,3.5v577.6c-39.1-24.6-94.5-31-148-12.1C64.4,771.7,18.5,848,43.7,913.2c25.2,65.2,112.1,94.6,193.9,65.7c72.9-25.7,116.9-89,108-148.5V405.4l565.4-129.4v324.6c-39.1-24.6-94.5-31-148-12.1C681.3,617.5,635.3,693.8,660.6,759c25.2,65.2,112,94.6,193.9,65.7c56.6-20,95.4-62.7,105.9-108.7c0.2-0.4,0.1-0.8,0.3-1.2c1.2-5.3,1.8-10.7,2.2-16h0.2v-1.3c0.2-2.6,0-5.3,0-7.9v-660H962.2z M219.7,936.7c-52.6,18.6-108.4-0.3-124.6-42.2c-16.2-41.9,13.3-90.9,65.9-109.5c52.6-18.6,108.4,0.3,124.6,42.2C301.8,869,272.3,918.1,219.7,936.7z M836.5,782.5c-52.6,18.6-108.4-0.3-124.6-42.2c-16.2-41.9,13.3-90.9,65.9-109.5c52.6-18.6,108.4,0.3,124.6,42.2C918.6,714.8,889.1,763.9,836.5,782.5z M911.1,223.4L345.7,352.7V199.8L911.1,70.4V223.4z"/></g>
</svg>