<?xml version="1.0" encoding="utf-8"?>
<!-- Svg Vector Icons : http://www.sfont.cn -->
<!DOCTYPE svg PUBLIC "-//W3C//DTD SVG 1.1//EN" "http://www.w3.org/Graphics/SVG/1.1/DTD/svg11.dtd">
<svg version="1.1" xmlns="http://www.w3.org/2000/svg" xmlns:xlink="http://www.w3.org/1999/xlink" x="0px" y="0px" viewBox="0 0 1000 1000" enable-background="new 0 0 1000 1000" xml:space="preserve">
<metadata> Svg Vector Icons : http://www.sfont.cn </metadata>
<g><path d="M500,10C229.4,10,10,229.4,10,500s219.4,490,490,490c270.6,0,490-219.4,490-490S770.6,10,500,10z M845.4,786.9c-44.8-18.7-150.5-55.4-215.9-74.7c-5.6-1.8-6.5-2-6.5-25.2c0-19.2,7.9-38.5,15.6-54.9c8.4-17.7,18.3-47.6,21.8-74.4c10-11.5,23.5-34.3,32.1-77.6c7.7-38.2,4.1-52.1-1-65.1c-0.5-1.4-1.1-2.7-1.5-4.1c-1.9-8.9,0.7-55.5,7.2-91.5c4.6-24.8-1.1-77.4-35.2-121c-21.5-27.5-62.8-61.3-138-66l-41.3,0c-74,4.7-115.2,38.5-136.7,66c-34.1,43.6-39.8,96.2-35.3,121c6.6,36.1,9.2,82.6,7.3,91.4c-0.4,1.5-1,2.9-1.5,4.3c-5,13-8.6,26.9-1,65.1c8.7,43.3,22.2,66.1,32.1,77.6c3.5,26.8,13.4,56.7,21.8,74.4c6.1,13,9,30.7,9,55.7c0,23.2-0.9,23.5-6.1,25.2c-67.7,20-175.4,58.9-215.5,76.5c-66-78.2-106-179.2-106-289.3C50.8,252.4,252.3,50.9,500,50.9c247.7,0,449.2,201.5,449.2,449.2C949.2,609,910.1,709,845.4,786.9z"/></g>
</svg>