<?xml version="1.0" encoding="utf-8"?>
<!-- Svg Vector Icons : http://www.sfont.cn -->
<!DOCTYPE svg PUBLIC "-//W3C//DTD SVG 1.1//EN" "http://www.w3.org/Graphics/SVG/1.1/DTD/svg11.dtd">
<svg version="1.1" xmlns="http://www.w3.org/2000/svg" xmlns:xlink="http://www.w3.org/1999/xlink" x="0px" y="0px" viewBox="0 0 1000 1000" enable-background="new 0 0 1000 1000" xml:space="preserve">
<metadata> Svg Vector Icons : http://www.sfont.cn </metadata>
<g><path d="M820.8,127.5C764.8,96.9,718,97.8,657.4,91.3c-43.4-4.3-103.5,1.8-154.6-63.1l9.9,18.9c0,0.1,0,0.1,0,0.2L502.6,28c0.1,0.1,0.1,0.1,0.2,0.2l-8.1-15.5c0,0,0,0.1,0,0.1l-1.5-2.8v699.5C443,674.8,331,664.1,246.5,686.7C122.7,719.9,70.2,812,91.7,892.4c21.6,80.4,139.3,118.8,263.1,85.6c115-30.8,194.6-112.5,188-188.5V130.2c36.2,41.9,70.9,73.6,163.6,77.3c54.1,2.1,99.6,2.1,129,18.2c20,10.9,67.4,46,74,90.3C925.8,257,884.4,162.1,820.8,127.5z M339.5,910.5c-81.7,18.4-155.1,1.7-167.6-49.4C159.3,810,201.5,765.4,283.2,747c81.7-18.4,171.9-3.5,184.4,47.6C480.2,845.6,421.2,892.1,339.5,910.5z"/></g>
</svg>